<svg width="24" height="24" viewBox="0 0 24 24" fill="none" xmlns="http://www.w3.org/2000/svg">
<g id="fluent-emoji-flat:man-walking">
<g id="Group">
<path id="Vector" d="M10.815 9.66L11.5275 9.7125C12.6675 9.75 13.425 10.3575 13.59 11.4525L14.535 15.4275C14.55 15.5025 14.5875 15.57 14.6325 15.63L17.655 19.7175L16.6275 20.37L13.53 17.3175C12.99 16.8 12.5325 16.3725 12.345 15.96L11.46 12.7425L10.815 9.66Z" fill="#636363"/>
<path id="Vector_2" d="M10.2 12.15L9.24748 15.075C9.07498 15.5625 8.97748 16.095 8.89498 16.8375L8.47498 20.73L9.44248 21.6L10.965 16.4925L13.3425 13.7925C13.7325 13.3425 13.875 12.7425 13.77 12.1575L12.021 11.7878L10.2 12.1575V12.15Z" fill="#9B9B9B"/>
<path id="Vector_3" d="M18.1875 20.1375L17.46 19.455L16.2675 20.0025L15.7725 22.29C15.735 22.545 16.05 22.695 16.23 22.5075L18.195 20.4C18.2625 20.325 18.2625 20.205 18.1875 20.1375ZM9.14249 22.4775L9.46499 21.5325L8.48249 20.67L6.19499 21.1575C5.93999 21.225 5.93249 21.5775 6.17999 21.66L8.90999 22.59C9.00749 22.6275 9.11249 22.575 9.14249 22.4775Z" fill="#533566"/>
<path id="Vector_4" d="M15.1815 12.4905C15.1595 12.4215 15.1385 12.3523 15.1185 12.2828C15.103 12.2255 15.086 12.1688 15.0675 12.1125C14.1187 9.3585 12.165 8.1855 11.964 8.0655C11.8793 8.0238 11.8038 7.96561 11.7418 7.89435C11.6799 7.8231 11.6328 7.74019 11.6034 7.65051C11.5739 7.56083 11.5626 7.46616 11.5702 7.37206C11.5778 7.27796 11.604 7.18632 11.6475 7.1025C11.8275 6.7575 12.255 6.6225 12.5925 6.8025C12.6975 6.855 15.21 8.1975 16.395 11.6475L16.4385 11.7698C16.4715 11.8598 16.5022 11.9445 16.5225 12.0225L16.7475 12.585L16.7527 12.5985C16.8135 12.7673 16.9267 13.077 16.8975 13.245C16.86 13.4475 16.5225 13.6725 16.2375 13.7625C16.2375 13.7625 15.8775 13.875 15.57 13.8C15.3375 13.7475 15.375 13.4775 15.375 13.4775C15.375 13.4775 15.2925 13.41 15.0825 13.26C14.8102 13.062 15.0787 12.633 15.1815 12.4905ZM11.2815 8.20275C11.301 8.01936 11.2468 7.83573 11.1309 7.69226C11.015 7.5488 10.8469 7.45725 10.6635 7.43775C10.4801 7.41826 10.2965 7.47242 10.153 7.58832C10.0095 7.70421 9.91797 7.87236 9.89848 8.05575L9.89773 8.064C9.88169 8.16616 9.86092 8.26752 9.83548 8.36775C9.77923 8.58825 9.67798 8.91075 9.49948 9.294C9.15673 10.029 8.52448 10.9935 7.36573 11.8905C7.21123 11.8508 6.69673 11.7458 6.60748 12.0825C6.53998 12.33 6.50998 12.4275 6.50998 12.4275C6.50998 12.4275 6.24748 12.4875 6.28498 12.7275C6.32998 13.035 6.56248 13.3275 6.56248 13.3275C6.74998 13.56 7.07998 13.785 7.27498 13.7475C7.42648 13.7145 7.63648 13.5368 7.77598 13.4175L7.82998 13.3725L8.25748 12.9585C9.58648 11.919 10.3387 10.7843 10.7595 9.882C10.9792 9.41025 11.109 9.0045 11.1832 8.70975C11.2241 8.54808 11.2564 8.38435 11.28 8.21925L11.2807 8.208V8.20425L11.2815 8.20275Z" fill="#FFC83D"/>
<path id="Vector_5" d="M11.9175 5.08499L12.1575 6.56249L10.6425 6.82499L10.41 5.31749L11.9175 5.08499Z" fill="#FCB100"/>
<path id="Vector_6" d="M10.6875 10.2225C11.145 9.3525 11.37 8.565 11.475 7.995C11.565 7.5225 11.205 7.08 10.725 7.0575H10.695C10.335 7.0575 10.14 7.2375 10.0725 7.5975C10.035 7.8075 9.8625 8.1675 9.765 8.4675C9.6525 8.82 9.5025 9.165 9.3225 9.5025C9.2925 9.5625 9.315 9.63 9.375 9.66L10.53 10.2675C10.59 10.305 10.6575 10.2825 10.6875 10.2225Z" fill="#0092E7"/>
<path id="Vector_7" d="M11.49 6.4725C10.605 6.69 10.0725 6.9975 9.84002 8.265C9.56252 9.78 10.1925 12.1575 10.1925 12.1575H13.77L13.32 7.9275C13.2225 7.0275 12.4725 6.2325 11.49 6.4725Z" fill="#00A6ED"/>
<path id="Vector_8" d="M14.5125 8.3175C13.8375 7.575 13.17 7.095 12.66 6.795C12.24 6.54 11.6925 6.7275 11.505 7.1775L11.49 7.2075C11.3775 7.56 11.52 7.9425 11.8425 8.13C12.0375 8.2425 12.27 8.3925 12.5175 8.595C12.8175 8.8275 13.095 9.09 13.35 9.375C13.395 9.4275 13.47 9.4275 13.5225 9.3825L14.505 8.49C14.5575 8.445 14.5575 8.37 14.5125 8.3175Z" fill="#3BC6F6"/>
<path id="Vector_9" d="M11.0775 2.37L10.245 2.355C9.53248 2.34 8.94748 2.91 8.93248 3.615V3.975C8.93248 4.0875 8.90248 4.2 8.84248 4.2975C8.66248 4.5825 8.57998 4.6125 8.57248 4.755C8.55748 4.98 8.76748 5.03999 8.86498 5.055C8.89498 5.06249 8.91748 5.085 8.91748 5.115C8.92498 5.91 9.05998 6.48 10.0125 6.495C10.59 6.5025 11.5125 6.2325 11.79 5.55L12.0525 4.63499L12.3525 3.675C12.3525 2.97 11.7825 2.385 11.0775 2.37Z" fill="#FFC83D"/>
<path id="Vector_10" d="M9.24747 4.3575C9.20247 4.3575 9.15747 4.3125 9.15747 4.2525V4.245C9.16497 4.0125 9.36747 3.8775 9.56247 3.885C9.75747 3.885 9.95997 4.0275 9.95247 4.26V4.2675C9.95247 4.3275 9.90747 4.3725 9.86247 4.3725L9.24747 4.3575Z" fill="white"/>
<path id="Vector_11" d="M9.17247 4.36499C9.1638 4.32807 9.15877 4.29039 9.15747 4.25249C9.15747 4.07999 9.26997 3.94499 9.40497 3.94499C9.53997 3.94499 9.64497 4.08749 9.64497 4.25999C9.64497 4.29749 9.63747 4.33499 9.62997 4.37249L9.17247 4.36499Z" fill="#7D4533"/>
<path id="Vector_12" d="M9.25275 4.365C9.23242 4.33105 9.22203 4.29207 9.22275 4.2525C9.22275 4.155 9.29025 4.08 9.36525 4.08C9.44025 4.08 9.50025 4.1625 9.50025 4.26C9.50025 4.305 9.48675 4.335 9.47175 4.365H9.25275Z" fill="black"/>
<path id="Vector_13" d="M9.34049 4.1415C9.34949 4.10925 9.33449 4.077 9.30674 4.06875C9.27899 4.06125 9.24899 4.08 9.23924 4.11225C9.23024 4.14375 9.24524 4.176 9.27374 4.18425C9.30149 4.19175 9.33074 4.173 9.34049 4.1415Z" fill="white"/>
<path id="Vector_14" d="M9.7185 5.1165C9.7635 5.1315 9.78675 5.181 9.771 5.226C9.73017 5.34147 9.64544 5.43616 9.5352 5.48952C9.42497 5.54288 9.29814 5.5506 9.18225 5.511C9.16303 5.5019 9.14786 5.48602 9.13964 5.46641C9.13142 5.44681 9.13073 5.42486 9.13771 5.40477C9.14468 5.38469 9.15882 5.36789 9.17743 5.3576C9.19603 5.3473 9.21778 5.34424 9.2385 5.349C9.3885 5.4015 9.55725 5.319 9.609 5.169C9.61664 5.14758 9.63243 5.13005 9.65294 5.12022C9.67345 5.11038 9.69701 5.10905 9.7185 5.1165Z" fill="#990839"/>
<path id="Vector_15" d="M9.90675 3.8565C9.86967 3.85707 9.83357 3.84459 9.80475 3.82125C9.67819 3.73249 9.52313 3.69399 9.36975 3.71325C9.34305 3.71604 9.31608 3.71227 9.29117 3.70227C9.26626 3.69228 9.24417 3.67635 9.2268 3.65589C9.20944 3.63542 9.19733 3.61102 9.19152 3.58482C9.18572 3.55861 9.1864 3.53139 9.1935 3.5055C9.20244 3.47432 9.2205 3.44652 9.24536 3.42567C9.27021 3.40482 9.30073 3.39188 9.333 3.3885C9.5715 3.3615 9.813 3.42525 10.008 3.56625C10.0345 3.58725 10.0537 3.61597 10.0632 3.64842C10.0726 3.68087 10.0716 3.71545 10.0605 3.74736C10.0494 3.77926 10.0286 3.80691 10.001 3.82647C9.9735 3.84602 9.94054 3.85652 9.90675 3.8565Z" fill="#D37034"/>
<path id="Vector_16" d="M12.1275 1.83C12.6525 1.9575 12.9225 2.4375 12.9225 2.94C12.9225 2.94 12.9225 3.345 12.855 3.69C12.8175 3.885 12.7725 4.0875 12.7275 4.2525C12.6825 4.44 12.5775 4.695 12.465 4.8525C12.36 4.995 12.135 5.13 11.925 5.1525C11.7405 5.17125 11.4375 5.04525 11.3587 4.8135C11.4216 4.76846 11.4735 4.70979 11.5105 4.64186C11.5476 4.57393 11.5687 4.49851 11.5725 4.42125C11.5805 4.31166 11.5534 4.20236 11.4952 4.10918C11.4369 4.01601 11.3505 3.94379 11.2485 3.903C11.2146 3.88332 11.1766 3.87201 11.1375 3.87L11.055 3.8625C11.0164 3.86015 10.9786 3.85006 10.9439 3.83283C10.9093 3.8156 10.8784 3.79158 10.8533 3.7622C10.8281 3.73281 10.809 3.69866 10.7973 3.66178C10.7856 3.6249 10.7814 3.58603 10.785 3.5475C10.8 3.345 10.65 3.1725 10.4475 3.1725L9.06748 3.0825C9.05998 3.075 9.04498 3.075 9.03748 3.075C8.89363 3.04902 8.76358 2.97307 8.67027 2.86055C8.57696 2.74803 8.52639 2.60617 8.52748 2.46C8.53498 2.1075 8.82748 1.8375 9.17248 1.86C9.27748 1.8675 9.37498 1.815 9.43498 1.74C9.5261 1.62468 9.65435 1.54449 9.79791 1.51304C9.94148 1.48159 10.0915 1.50083 10.2225 1.5675C10.425 1.665 10.6575 1.68 10.8675 1.605C10.95 1.5825 11.0325 1.5675 11.1225 1.575C11.235 1.5825 11.34 1.6125 11.43 1.6725C11.5575 1.7475 11.7075 1.7925 11.8575 1.7925C11.9475 1.7925 12.03 1.8075 12.1275 1.83Z" fill="#F1A11E"/>
</g>
</g>
</svg>
